<?xml version="1.0" encoding="utf-8"?>
<!-- Generator: Adobe Illustrator 27.5.0, SVG Export Plug-In . SVG Version: 6.00 Build 0)  -->
<svg version="1.1" xmlns="http://www.w3.org/2000/svg" xmlns:xlink="http://www.w3.org/1999/xlink" x="0px" y="0px"
	 viewBox="0 0 500 500" style="enable-background:new 0 0 500 500;" xml:space="preserve">
<g id="BACKGROUND">
	<rect style="fill:#FAD6C5;" width="500" height="500"/>
</g>
<g id="OBJECTS">
	<g>
		<g>
			<polygon style="fill:#FFFFFF;" points="108.692,163.923 111.23,149.245 112.801,163.923 126.301,165.199 112.718,167.151 
				111.23,183.271 108.692,167.092 95.676,165.221 			"/>
			<path style="fill:#FFFFFF;" d="M131.1,177.628l1.301-7.526l0.802,7.494c0.025,0.235,0.212,0.42,0.448,0.442l6.86,0.648
				l-6.921,0.995c-0.228,0.033-0.403,0.217-0.424,0.447l-0.765,8.284l-1.309-8.343c-0.034-0.216-0.204-0.384-0.421-0.415
				l-6.64-0.954l6.628-0.661C130.882,178.016,131.062,177.848,131.1,177.628z"/>
			<polygon style="fill:#FFFFFF;" points="116.113,188.826 117.965,178.118 119.111,188.826 128.96,189.757 119.051,191.182 
				117.965,202.942 116.113,191.138 106.618,189.773 			"/>
			<polygon style="fill:#FFFFFF;" points="284.104,233.045 285.805,223.207 286.858,233.045 295.907,233.9 286.803,235.209 
				285.805,246.014 284.104,235.169 275.38,233.915 			"/>
			<polygon style="fill:#FFFFFF;" points="291.782,251.977 294.072,238.732 295.49,251.977 307.673,253.129 295.415,254.89 
				294.072,269.437 291.782,254.837 280.036,253.149 			"/>
		</g>
	</g>
	<g>
		<g style="opacity:0.46;">
			<polygon style="fill:#FFFFFF;" points="351.124,59.452 83.398,59.452 130.221,384.33 410.225,384.33 			"/>
		</g>
		<ellipse style="opacity:0.42;fill:#FAD6C5;" cx="245.057" cy="445.034" rx="169.791" ry="27.49"/>
	</g>
	<g>
		<g>
			<g>
				<path style="fill:#E97C4B;stroke:#2C271D;stroke-linecap:round;stroke-linejoin:round;stroke-miterlimit:10;" d="
					M259.706,176.493c-4.732,0.885-9.612,1.145-14.166,2.706c-10.399,3.564-17.843,14.368-17.471,25.354l3.47,5.671
					c7.76,1.758,16.015,1.575,23.551-0.98c7.535-2.555,14.303-7.541,18.592-14.242c5.174-8.084,6.498-17.982,7.336-27.544
					C274.676,171.957,267.35,175.063,259.706,176.493z"/>
				<path style="fill:none;stroke:#2C271D;stroke-linecap:round;stroke-linejoin:round;stroke-miterlimit:10;" d="M230.478,207.63
					c9.651-9.696,22.032-16.646,35.336-19.835"/>
			</g>
			<g>
				<path style="fill:#E97C4B;stroke:#2C271D;stroke-linecap:round;stroke-linejoin:round;stroke-miterlimit:10;" d="
					M264.273,205.971c-4.206-2.342-8.126-5.26-12.626-6.968c-10.277-3.901-22.906-0.346-29.638,8.344l-0.954,6.579
					c4.847,6.31,11.315,11.443,18.745,14.291c7.43,2.848,15.821,3.336,23.403,0.921c9.145-2.914,16.487-9.683,23.24-16.503
					C278.688,212.045,271.068,209.755,264.273,205.971z"/>
				<path style="fill:none;stroke:#2C271D;stroke-linecap:round;stroke-linejoin:round;stroke-miterlimit:10;" d="M221.896,211.254
					c13.619-1.294,27.584,1.268,39.857,7.314"/>
			</g>
		</g>
		<g>
			<g>
				<g>
					<path style="fill:#F9BD7A;stroke:#2C271D;stroke-linecap:round;stroke-linejoin:round;stroke-miterlimit:10;" d="
						M198.813,63.556c0,0-2.499-21.553-11.346-32.393c-3.346-4.1-8.665-6.049-13.899-5.274l-15.041,2.227
						c-3.237,0.479-6.536,0.32-9.712-0.469l0,0c-6.679-1.66-13.735-0.353-19.405,3.547c-8.746,6.014-19.379,16.247-15.347,28.712
						l1.668,7.515c0,0,1.123,15.21,14.42,3.858c0,0-0.835,12.612,1.877,17.147c0,0-4.801,1.424-5.516,6.192l7.749-3.02
						c0,0-3.887,7.002-2.41,13.016l6.432-10.173c0,0-0.829,19.918,2.645,13.592C141.589,106.831,198.813,63.556,198.813,63.556z"/>
					
						<line style="fill:none;stroke:#2C271D;stroke-linecap:round;stroke-linejoin:round;stroke-miterlimit:10;" x1="130.15" y1="71.278" x2="139.424" y2="61.862"/>
					<path style="fill:#FAD6C5;stroke:#2C271D;stroke-linecap:round;stroke-linejoin:round;stroke-miterlimit:10;" d="
						M142.107,58.979c0,0,7.146-7.252,15.628-12.685c8.613-5.517,20.114-1.308,23.103,8.474l3.796,12.422l-34.941,27.425
						C149.693,94.615,134.807,83.903,142.107,58.979z"/>
					<path style="opacity:0.48;fill:#F9BD7A;" d="M197.597,56.659c1.986,7.325,1.216,6.897,1.216,6.897
						s-57.223,43.275-57.884,44.477c-2.372,4.319-2.738-3.594-2.731-9.05C139.287,96.295,157.575,56.046,197.597,56.659z"/>
					<path style="opacity:0.48;fill:#F9BD7A;" d="M149.904,52.476c-0.084,3.058-1.416,5.995-2.857,8.637
						c-1.531,2.808-3.324,5.459-4.983,8.191c-1.46,2.405-6.863,11.632-9.002,13.012c-0.798,0.515-1.646,0.9-2.523,1.187
						c-0.581-3.752-0.467-9.863-0.389-12.225C132.884,67.056,144.028,55.638,149.904,52.476z"/>
				</g>
			</g>
			<g>
				<g>
					<path style="fill:#F9BD7A;stroke:#2C271D;stroke-linecap:round;stroke-linejoin:round;stroke-miterlimit:10;" d="
						M296.966,77.349l-3.738,6.729c0,0-5.393,14.269-14.92-0.384c0,0-2.777,12.325-6.664,15.903c0,0,4.197,2.734,3.535,7.508
						l-6.579-5.094c0,0,1.741,7.818-1.378,13.158l-3.289-11.577c0,0-0.491,1.944-1.207,4.379c-0.416,1.42-0.908,3.001-1.431,4.454
						c-0.075,0.214-0.15,0.416-0.224,0.619c-0.694,1.869-1.42,3.45-2.05,4.08c-0.053,0.053-0.096,0.096-0.139,0.117
						c-0.021,0.021-0.032,0.032-0.053,0.043c-0.064,0.043-0.118,0.075-0.171,0.096c-0.064,0.032-0.128,0.043-0.192,0.043
						c-0.363,0-0.684-0.459-0.918-1.549c-0.299-1.335-43.981-50.101-43.981-50.101s2.264-6.814,5.917-14.739
						c3.866-8.395,9.302-18.017,15.251-22.076c4.368-2.98,10.018-3.343,14.824-1.111l13.788,6.397
						c2.969,1.378,6.173,2.168,9.441,2.307c3.439,0.15,6.76,1.047,9.762,2.563c2.991,1.527,5.682,3.674,7.839,6.344
						C297.072,53.714,304.367,66.54,296.966,77.349z"/>
					
						<line style="fill:none;stroke:#2C271D;stroke-linecap:round;stroke-linejoin:round;stroke-miterlimit:10;" x1="278.307" y1="83.688" x2="272.086" y2="72.027"/>
					<path style="fill:#FAD6C5;stroke:#2C271D;stroke-linecap:round;stroke-linejoin:round;stroke-miterlimit:10;" d="
						M270.331,68.501c0,0-4.795-8.982-11.386-16.598c-6.693-7.735-18.916-6.961-24.558,1.571l-10.766,16.069l29.324,30.978
						C252.945,100.521,270.259,94.472,270.331,68.501z"/>
					<path style="opacity:0.48;fill:#F9BD7A;" d="M262.725,107.969c-0.416,1.42-0.908,3.001-1.431,4.454
						c-0.075,0.214-0.15,0.416-0.224,0.619c-0.694,1.869-1.42,3.45-2.05,4.08c-0.053,0.053-0.096,0.096-0.139,0.117
						c-0.021,0.021-0.032,0.032-0.053,0.043c-0.064,0.043-0.118,0.075-0.171,0.096c-0.064,0.032-0.128,0.043-0.192,0.043
						c-0.363,0-0.684-0.459-0.918-1.549c-0.299-1.335-43.981-50.101-43.981-50.101s0.387-1.325,4.04-9.25
						C266.369,68.097,262.447,105.128,262.725,107.969z"/>
					<path style="opacity:0.48;fill:#F9BD7A;" d="M264.7,60.053c-0.787,2.956-0.343,6.15,0.289,9.093
						c0.672,3.127,1.638,6.178,2.454,9.268c0.718,2.72,3.281,13.101,4.94,15.032c0.619,0.72,1.323,1.33,2.082,1.854
						c1.622-3.433,3.247-9.325,3.842-11.613C276.884,78.863,269.438,64.753,264.7,60.053z"/>
				</g>
			</g>
			<path style="fill:#F9BD7A;stroke:#2C271D;stroke-linecap:round;stroke-linejoin:round;stroke-miterlimit:10;" d="
				M376.647,347.952c-1.2,3.632-3.145,7.015-5.68,9.879c2.045-6.506,1.848-13.484,1.407-20.29
				c-0.872-13.432-2.889-27.494-10.982-38.249c-4.043-5.372-9.391-9.611-14.876-13.5c-4.488-3.182-9.131-6.186-14.14-8.461
				c-5.58-2.535-11.581-4.142-17.681-4.734c9.468,7.77,17.474,17.315,23.478,27.99c-3.184-3.257-7.439-5.449-11.939-6.15
				c5.134,9.803,11.1,19.302,14.287,29.9c3.187,10.598,3.215,22.82-3.03,31.956c0.884-3.433,0.566-7.163-0.885-10.397
				c-0.267,5.325-1.219,10.734-3.836,15.379c-2.617,4.645-17.08,9.517-22.351,10.318l-1.304,17.903
				c6.523,6.897,15.822,11.093,25.31,11.421c9.488,0.327,19.053-3.217,26.037-9.649c-3.41,1.253-7.092,1.76-10.713,1.474
				C365.958,384.225,376.745,366.265,376.647,347.952z"/>
			<path style="fill:#F9BD7A;stroke:#2C271D;stroke-linecap:round;stroke-linejoin:round;stroke-miterlimit:10;" d="M207.483,371.56
				c0,0-28.076,7.907-19.686,34.047c0,0-10.566,3.266-15.245,15.578c-3.347,8.805,2.831,18.126,12.243,18.529
				c6.814,0.291,15.857-1.721,26.722-9.58l14.522-8.229L207.483,371.56z"/>
			<path style="fill:#F9BD7A;stroke:#2C271D;stroke-linecap:round;stroke-linejoin:round;stroke-miterlimit:10;" d="
				M322.638,422.999c6.35-4.33,7.73-13.35,5.96-20.82c-1.78-7.47-6-14.1-8.82-21.25c-6.04-15.33-5.43-32.34-7.72-48.67
				c-5.29-37.64-27.24-72.64-58.82-93.8c-6.43-4.31-13.42-8.25-17.9-14.56c-9.22-12.97-0.04-45.95-0.04-45.95
				c5.86-2.38,11.19-5.8,15.71-10.23c-0.13,0.9-0.31,1.79-0.56,2.67c2.5-0.96,4.67-2.75,6.09-5.02c-0.3,0.78-0.77,1.5-1.36,2.1
				c3.31-2.43,5.79-5.97,6.95-9.91c0.08,1.09,0.88,2.1,1.92,2.43c-0.75-1.78-0.09-3.8,0.3-5.7c0.4-1.89,0.37-4.21-1.22-5.32
				c2.82-2.28,4.1-6.29,3.12-9.78c-0.86,0.42-1.8,0.63-2.74,0.63c-1.36,0-2.72-0.43-3.86-1.24c-6.96-4.96-5.74-11.14-3.73-15.21
				c2.71-5.48,4.01-11.59,3.42-17.67c-3.55-36.51-49.63-42.79-49.63-42.79c-51.34-6.88-65.14,36.71-65.14,36.71
				c-6.21,10.08-16.78,8.26-16.78,8.26c-1.22,5.44,2.96,6.96,2.96,6.96c-0.93,0.75-1.74,1.68-2.35,2.7
				c-0.042,0.07-0.077,0.143-0.118,0.214c-0.878,1.187-1.552,2.547-1.963,3.958c-0.97,3.332-0.766,6.88-0.461,10.337
				c0.466-0.469,0.932-0.937,1.398-1.406c-0.218,5.445,1.052,10.943,3.638,15.74c0.271-1.483,0.841-2.911,1.664-4.173
				c-0.445,3.036,0.678,6.134,2.434,8.65c1.756,2.516,4.109,4.544,6.437,6.544c0.216-1.132,0.29-2.29,0.219-3.44
				c3.212,4.5,4.3,10.451,2.89,15.796c1.84,0.154,3.666-0.313,5.295-1.187c2.43,9.332,2.717,19.142,0.525,28.638
				c-1.57,6.79-4.28,13.1-8.91,18.36c-10.07,11.47-28.27,16.72-32.03,31.51l5.76-5.34c-3.89,8.07-6.85,16.59-8.78,25.34l6.76-7.2
				c-0.73,6.8-0.34,13.71,1.14,20.39l3.54-7.6c-1.39,14.55,0.9,29.44,6.58,42.9c11.13,26.34,35.16,48.29,35.95,76.87
				c0.11,4.07-0.3,8.24-2,11.94c-3.71,8.05-12.5,12.16-19.35,17.78c-7.71,6.32-13.35,18.85-3.79,25.33
				c3.48,2.36,7.85,3.02,11.96,2.14l22.13-4.76c2.96-0.64,6.05-1.34,8.32-3.33c3.03-2.65,3.92-6.94,4.49-10.93
				c3.9-26.87,1.91-54.2-0.1-81.28c4.61,3.94,9.21,7.88,13.82,11.82c1.34,1.15,2.71,2.32,3.6,3.84c1.21,2.07,1.61,4.54,1.6,6.93
				c-0.1,21.4-3.86,60.6-5.54,77.09c-0.6,5.98-0.9,13.1,3.38,17.32c6.94,6.85,21.77,4.26,32.99,2.51c2.39-0.37,4.9-0.9,6.66-2.56
				c1.91-1.8,2.52-4.55,2.84-7.15c1.09-9.02-1.16-13.09-10.27-22.98c0,0,0,0-0.32-13.28c9.26,3.24,22.04,1.2,33.79-1.08
				c5.64-1.09,11.05-2.24,15.71-2.9c-3.97,4.85-13.29,11.46-14.14,17.94c-0.18,1.38-0.16,2.78,0.09,4.14
				c1.48,8.35,8.56,10.13,14.99,11.42c7.56,1.52,15.87,2.78,22.63-0.94c3.1-1.7,5.59-4.33,8.52-6.32c4.7-3.18,10.62-4.81,14.16-9.25
				C330.088,431.449,328.298,422.649,322.638,422.999z"/>
			<path style="opacity:0.48;fill:#F9BD7A;" d="M212.1,189.852c-11.965,8.536-26.336,9.761-37.101-1.678
				c0,0,3.165,14.941,19.321,19.227C194.319,207.4,208.503,202.225,212.1,189.852z"/>
			<path style="opacity:0.48;fill:#F9BD7A;" d="M264.578,421.789c-11.75,2.28-24.53,4.32-33.79,1.08l14.03-78.44
				C244.818,344.428,263.159,392.029,264.578,421.789z"/>
			<path style="fill:#FAD6C5;stroke:#2C271D;stroke-linecap:round;stroke-linejoin:round;stroke-miterlimit:10;" d="
				M213.961,175.124l-0.247-8.677c-14.834,5.759-26.504,3.545-35.893-4.387c-1.08,2.559-3.372,9.003-2.088,15.096
				c0.924,4.437,3.738,8.682,10.3,11.101c3.956,1.459,8.525,1.952,12.946,1.45c5.682-0.638,13.409-2.973,14.791-10.801
				C213.982,177.765,214.048,176.51,213.961,175.124z"/>
			<g>
				<g>
					<path style="fill:none;stroke:#2C271D;stroke-linecap:round;stroke-linejoin:round;stroke-miterlimit:10;" d="M133.335,445.921
						c-0.15-3.61,0.395-9.569,4.763-14.108"/>
					<path style="fill:none;stroke:#2C271D;stroke-linecap:round;stroke-linejoin:round;stroke-miterlimit:10;" d="M146.258,449.798
						c-0.085-3.642,0.609-9.26,4.774-13.585"/>
				</g>
				<path style="fill:none;stroke:#2C271D;stroke-linecap:round;stroke-linejoin:round;stroke-miterlimit:10;" d="M200.404,367.704
					l-0.776-17.321c0,0,0.686-9.598-6.735-21.677c-2.563-4.171-6.205-7.523-10.346-10.134c-3.248-2.048-7.228-6.69-6.444-17.049
					c0,0-7.756,6.204-4.395,13.443c0,0-5.17-2.844-5.17-9.307c0,0-13.184,4.136-16.287-9.048c0,0,8.79,4.395,17.321-3.361
					c0,0-9.824,2.585-13.702-1.551c0,0,8.79-0.776,11.633-5.429"/>
				<path style="fill:none;stroke:#2C271D;stroke-linecap:round;stroke-linejoin:round;stroke-miterlimit:10;" d="M230.785,422.868
					l14.86-82.051l0.006-0.113c0.25-5.128-0.428-10.235-1.718-15.204c-0.872-3.361-1.26-8.725,0.679-16.739"/>
				<path style="fill:none;stroke:#2C271D;stroke-linecap:round;stroke-linejoin:round;stroke-miterlimit:10;" d="M299.676,350.125
					c-9.105-6.503-16.206,2.886-19.481,8.682c-1.023,1.811-1.763,3.759-2.458,5.719c-1.642,4.634-5.977,8.805-11.669,12.743
					l4.653-1.551c-1.81,5.946-6.98,9.565-6.98,9.565c3.878,0,6.721-2.844,6.721-2.844c-1.23,3.484-2.117,6.622-2.927,9.364
					c-5.863,19.849,12.751,27.087,12.751,27.087s11.892,11.633,36.193,9.048"/>
				<g>
					<path style="fill:none;stroke:#2C271D;stroke-linecap:round;stroke-linejoin:round;stroke-miterlimit:10;" d="M272.241,449.531
						c-0.224-1.185-1.869-10.669,4.422-17.195"/>
					<path style="fill:none;stroke:#2C271D;stroke-linecap:round;stroke-linejoin:round;stroke-miterlimit:10;" d="M285.036,453.098
						c-0.384-2.713-0.94-10.659,4.56-16.373"/>
				</g>
				<path style="fill:none;stroke:#2C271D;stroke-linecap:round;stroke-linejoin:round;stroke-miterlimit:10;" d="M226.84,446.295
					c0,0,3.962,12.571,2.755,22.898"/>
				<path style="fill:none;stroke:#2C271D;stroke-linecap:round;stroke-linejoin:round;stroke-miterlimit:10;" d="M208.598,447.844
					c0,0,3.962,12.56,2.745,22.898"/>
			</g>
			<g>
				<path style="fill:none;stroke:#2C271D;stroke-linecap:round;stroke-linejoin:round;stroke-miterlimit:10;" d="M230.995,86.197
					c0,0,9.103-3.334,13.595,10.819"/>
				<path style="fill:none;stroke:#2C271D;stroke-linecap:round;stroke-linejoin:round;stroke-miterlimit:10;" d="M176.302,81.2
					c0,0-9.034-3.518-13.812,10.542"/>
			</g>
			<g>
				<g>
					<path style="fill:#FFFFFF;stroke:#2C271D;stroke-linecap:round;stroke-linejoin:round;stroke-miterlimit:10;" d="
						M188.713,110.605c-1.037,5.325-3.142,9.968-5.818,13.276c-2.002,2.528-4.342,4.3-6.727,5.057
						c-0.47,0.16-0.933,0.259-1.393,0.318c-0.878,0.12-1.765,0.116-2.614-0.07c-1.296-0.251-2.478-0.82-3.549-1.689
						c-4.511-3.661-6.634-12.329-4.803-21.765c2.273-11.622,9.671-19.956,16.552-18.581c1.317,0.253,2.538,0.847,3.606,1.736
						c3.783,3.094,5.844,9.651,5.331,17.215C189.216,107.579,189.006,109.086,188.713,110.605z"/>
				</g>
				<path style="fill:#82483C;stroke:#2C271D;stroke-linecap:round;stroke-linejoin:round;stroke-miterlimit:10;" d="
					M189.298,106.102c-0.083,1.478-0.292,2.984-0.585,4.503c-1.037,5.325-3.142,9.968-5.818,13.276
					c-2.002,2.528-4.342,4.3-6.727,5.057c-0.47,0.16-0.933,0.259-1.393,0.318c-0.695-0.275-1.336-0.688-1.929-1.159
					c-1.467-3.775-2.059-9.116-1.425-14.955c0.134-1.369,0.348-2.71,0.617-3.984c2.679-1.017,8.092-2.778,8.092-2.778l-6.309-3.217
					c2.187-5.481,5.435-8.939,8.66-8.582C185.973,94.964,188.51,99.607,189.298,106.102z"/>
			</g>
			<g>
				<g>
					<path style="fill:#FFFFFF;stroke:#2C271D;stroke-linecap:round;stroke-linejoin:round;stroke-miterlimit:10;" d="
						M242.943,118.831c-1.135,5.305-3.326,9.909-6.063,13.166c-2.048,2.49-4.42,4.219-6.819,4.932
						c-0.473,0.152-0.938,0.242-1.399,0.292c-0.881,0.104-1.767,0.083-2.612-0.119c-1.291-0.275-2.463-0.866-3.517-1.754
						c-4.443-3.744-6.405-12.449-4.399-21.85c2.487-11.578,10.039-19.774,16.893-18.272c1.312,0.277,2.522,0.894,3.574,1.802
						c3.725,3.163,5.664,9.758,5.011,17.311C243.501,115.816,243.264,117.318,242.943,118.831z"/>
				</g>
				<path style="fill:#82483C;stroke:#2C271D;stroke-linecap:round;stroke-linejoin:round;stroke-miterlimit:10;" d="
					M243.611,114.34c-0.11,1.476-0.347,2.978-0.669,4.492c-1.135,5.305-3.326,9.909-6.063,13.166
					c-2.048,2.49-4.42,4.219-6.819,4.932c-0.473,0.152-0.938,0.242-1.399,0.292c-0.69-0.287-1.323-0.713-1.908-1.194
					c-1.397-3.802-1.889-9.152-1.148-14.979c0.159-1.367,0.398-2.703,0.69-3.972c2.697-0.967,8.143-2.627,8.143-2.627l-6.248-3.334
					c2.288-5.44,5.6-8.837,8.818-8.42C240.492,103.142,242.944,107.832,243.611,114.34z"/>
			</g>
			<path style="fill:#FAD6C5;stroke:#2C271D;stroke-linecap:round;stroke-linejoin:round;stroke-miterlimit:10;" d="
				M220.773,137.448c-6.581-7.393-9.626-17.38-7.438-27.033c0.648-2.857,1.685-5.791,3.27-8.647
				c3.631-6.541,4.145-14.474,0.58-21.051c-0.051-0.094-0.103-0.188-0.155-0.281c-3.005-5.354-10.399-6.443-14.786-2.148
				c-1.3,1.273-2.659,2.93-4.009,5.087c-2.273,3.633-3.248,7.903-3.134,12.187c0.139,5.22-0.501,10.648-1.71,15.966
				c-1.942,8.543-7.596,15.783-15.334,19.891c-1.193,0.633-2.436,1.346-3.695,2.142c-11.072,7-14.729,21.497-7.972,32.719
				c3.119,5.18,7.622,10.063,13.828,13.423c1.908,1.033,4.078,1.489,6.241,1.316l17.236-1.379l4.311,3.772
				c2.339,2.046,5.661,2.526,8.473,1.204c6.455-3.035,17.202-9.281,17.621-17.378C234.102,167.238,232.767,150.922,220.773,137.448z
				"/>
			<g>
				<path style="fill:#82483C;stroke:#2C271D;stroke-linecap:round;stroke-linejoin:round;stroke-miterlimit:10;" d="
					M184.021,152.059c0.148,5.875,10.58,14.084,15.001,17.304c1.238,0.902,2.763,1.22,4.173,0.868
					c5.942-1.482,21.681-6.369,21.071-16.442c-0.452-7.464-9.349-13.89-20.462-14.368
					C192.69,138.943,183.833,144.602,184.021,152.059z"/>
				<path style="opacity:0.29;fill:#FFFFFF;" d="M219.019,151.007c-0.129,3.482-5.334,2.798-13.398,1.938
					c-8.064-0.86-15.934-1.571-15.806-5.053c0.129-3.482,6.77-5.608,14.835-4.747C212.714,144.004,219.147,147.525,219.019,151.007z
					"/>
			</g>
			<g>
				<g>
					<g>
						<path style="fill:#2C271D;stroke:#2C271D;stroke-linecap:round;stroke-linejoin:round;stroke-miterlimit:10;" d="
							M212.996,174.993h-0.101c-0.982,0-0.984,1.527,0,1.527h0.101C213.979,176.52,213.98,174.993,212.996,174.993z"/>
						<path style="fill:#2C271D;stroke:#2C271D;stroke-linecap:round;stroke-linejoin:round;stroke-miterlimit:10;" d="
							M217.462,171.569c-0.982,0-0.984,1.527,0,1.527C218.444,173.095,218.445,171.569,217.462,171.569z"/>
						<path style="fill:#2C271D;stroke:#2C271D;stroke-linecap:round;stroke-linejoin:round;stroke-miterlimit:10;" d="
							M220.116,178.235c-0.031-0.094-0.083-0.176-0.158-0.246c-0.069-0.074-0.151-0.127-0.246-0.158
							c-0.091-0.048-0.189-0.07-0.294-0.066c-0.068,0.009-0.135,0.018-0.203,0.027c-0.129,0.036-0.242,0.102-0.337,0.196
							c-0.04,0.051-0.08,0.103-0.119,0.155c-0.069,0.119-0.104,0.247-0.104,0.385v0.163c-0.004,0.105,0.018,0.203,0.066,0.294
							c0.031,0.095,0.083,0.176,0.158,0.246c0.069,0.074,0.151,0.127,0.246,0.158c0.091,0.048,0.189,0.07,0.294,0.066
							c0.068-0.009,0.135-0.018,0.203-0.027c0.129-0.036,0.242-0.102,0.337-0.196c0.04-0.051,0.08-0.103,0.119-0.155
							c0.069-0.119,0.104-0.247,0.104-0.385v-0.163C220.186,178.424,220.164,178.326,220.116,178.235z"/>
					</g>
				</g>
				<g>
					<g>
						<path style="fill:#2C271D;stroke:#2C271D;stroke-linecap:round;stroke-linejoin:round;stroke-miterlimit:10;" d="
							M173.617,165.538h-0.101c-0.982,0-0.984,1.527,0,1.527h0.101C174.599,167.064,174.601,165.538,173.617,165.538z"/>
						<path style="fill:#2C271D;stroke:#2C271D;stroke-linecap:round;stroke-linejoin:round;stroke-miterlimit:10;" d="
							M178.082,162.113c-0.982,0-0.984,1.527,0,1.527C179.065,163.64,179.066,162.113,178.082,162.113z"/>
						<path style="fill:#2C271D;stroke:#2C271D;stroke-linecap:round;stroke-linejoin:round;stroke-miterlimit:10;" d="
							M180.737,168.779c-0.031-0.095-0.083-0.176-0.158-0.246c-0.069-0.074-0.151-0.127-0.246-0.158
							c-0.091-0.048-0.189-0.07-0.294-0.066c-0.068,0.009-0.135,0.018-0.203,0.027c-0.129,0.036-0.242,0.102-0.337,0.196
							c-0.04,0.051-0.08,0.103-0.119,0.154c-0.069,0.119-0.104,0.247-0.104,0.385v0.163c-0.004,0.105,0.018,0.203,0.066,0.294
							c0.031,0.094,0.083,0.176,0.158,0.246c0.069,0.074,0.151,0.127,0.246,0.158c0.091,0.048,0.189,0.07,0.294,0.066
							c0.068-0.009,0.135-0.018,0.203-0.027c0.129-0.036,0.242-0.102,0.337-0.196c0.04-0.051,0.079-0.103,0.119-0.154
							c0.069-0.119,0.104-0.247,0.104-0.385v-0.163C180.807,168.969,180.785,168.87,180.737,168.779z"/>
					</g>
				</g>
			</g>
		</g>
		<g>
			<path style="fill:#E97C4B;stroke:#2C271D;stroke-linecap:round;stroke-linejoin:round;stroke-miterlimit:10;" d="
				M241.708,214.196c-0.644-0.79-1.403-1.518-1.796-2.458c-0.347-0.831-0.377-1.753-0.498-2.645
				c-0.602-4.433-3.748-8.429-7.915-10.055c-2.6,12.13-25.195,27.776-44.37,23.772c-44.487-9.288-36.07-32.955-36.07-32.955
				c-3.862,2.282-7.723,4.564-11.585,6.846c-1.013,0.599-2.067,1.237-2.673,2.246c-1.364,2.273,0.08,5.391-1.081,7.773
				c-1.467,3.009-6.085,3.097-7.899,5.911c-1.453,2.255-0.526,5.347-1.582,7.813c-0.859,2.007-2.856,3.24-4.337,4.844
				c-3.759,4.074-3.93,10.516-1.807,15.637c2.123,5.121,6.132,9.195,10.164,12.999c4.031,3.805,8.252,7.569,10.999,12.384
				c2.747,4.815,3.79,11,1.161,15.88c5.48,2.326,11.586,2.675,17.538,2.566c11.03-0.202,22.874-2.285,30.612-10.148
				c2.896-2.943,5.038-6.53,7.593-9.773c5.53-7.016,12.95-12.347,20.823-16.568c4.638-2.487,9.477-4.629,13.859-7.542
				c4.382-2.914,8.361-6.724,10.393-11.578C245.269,224.291,245.034,218.274,241.708,214.196z"/>
			<g>
				<path style="fill:none;stroke:#2C271D;stroke-linecap:round;stroke-linejoin:round;stroke-miterlimit:10;" d="M135.719,206.72
					c0,0-3.585,13.543,16.219,20.68"/>
				<path style="fill:none;stroke:#2C271D;stroke-linecap:round;stroke-linejoin:round;stroke-miterlimit:10;" d="M226.161,230.968
					c15.701-8.029,13.751-19.23,13.751-19.23s-2.689,12.986-30.344,19.409"/>
				<path style="fill:none;stroke:#2C271D;stroke-linecap:round;stroke-linejoin:round;stroke-miterlimit:10;" d="M132.134,231.682
					c-7.315-6.066-5.895-11.237-5.895-11.237s-6.951,7.847,2.683,18.017"/>
				<path style="fill:none;stroke:#2C271D;stroke-linecap:round;stroke-linejoin:round;stroke-miterlimit:10;" d="M193.867,270.399
					c0,0,14.273-21.589,29.617-30.51"/>
			</g>
		</g>
	</g>
</g>
</svg>
